<svg xmlns="http://www.w3.org/2000/svg" version="1.1" xmlns:xlink="http://www.w3.org/1999/xlink" width="512" height="512" x="0" y="0" viewBox="0 0 512 512" style="enable-background:new 0 0 512 512" xml:space="preserve" class=""><g><path d="M256 0C114.853 0 0 114.833 0 256s114.853 256 256 256c141.167 0 256-114.833 256-256S397.147 0 256 0zm0 472.341c-119.295 0-216.341-97.046-216.341-216.341S136.705 39.659 256 39.659 472.341 136.705 472.341 256 375.295 472.341 256 472.341z" fill="#ff0000" opacity="1" data-original="#000000" class=""></path><path d="M355.148 234.386H156.852c-10.946 0-19.83 8.884-19.83 19.83s8.884 19.83 19.83 19.83h198.296c10.946 0 19.83-8.884 19.83-19.83s-8.884-19.83-19.83-19.83z" fill="#ff0000" opacity="1" data-original="#000000" class=""></path></g></svg>