<svg xmlns="http://www.w3.org/2000/svg" version="1.1" xmlns:xlink="http://www.w3.org/1999/xlink" width="512" height="512" x="0" y="0" viewBox="0 0 24 24" style="enable-background:new 0 0 512 512" xml:space="preserve" class=""><g><g data-name="Layer 2"><path d="M12 22a10 10 0 1 1 10-10 10 10 0 0 1-10 10zm0-18a8 8 0 1 0 8 8 8 8 0 0 0-8-8z" fill="#196450" opacity="1" data-original="#000000" class=""></path><path d="M12 16a1 1 0 0 1-1-1V9a1 1 0 0 1 2 0v6a1 1 0 0 1-1 1z" fill="#196450" opacity="1" data-original="#000000" class=""></path><path d="M15 13H9a1 1 0 0 1 0-2h6a1 1 0 0 1 0 2z" fill="#196450" opacity="1" data-original="#000000" class=""></path></g></g></svg>