<svg xmlns="http://www.w3.org/2000/svg" version="1.1" xmlns:xlink="http://www.w3.org/1999/xlink" width="512" height="512" x="0" y="0" viewBox="0 0 6.35 6.35" style="enable-background:new 0 0 512 512" xml:space="preserve" class=""><g><path d="M3.174.202C1.535.202.202 1.537.202 3.176s1.333 2.972 2.972 2.972 2.975-1.333 2.975-2.972S4.813.202 3.174.202zm0 .529a2.442 2.442 0 0 1 2.445 2.445c0 1.353-1.092 2.443-2.445 2.443S.731 4.53.731 3.176A2.44 2.44 0 0 1 3.174.731zM3.17 1.848a.265.265 0 0 0-.26.27v.792h-.792a.265.265 0 0 0 0 .53h.792v.792a.265.265 0 1 0 .53 0V3.44h.793a.265.265 0 0 0 0-.53H3.44v-.793a.265.265 0 0 0-.27-.27z" fill="#196450" opacity="1" data-original="#000000" class=""></path></g></svg>